<?xml version="1.0" standalone="yes"?><svg xmlns="http://www.w3.org/2000/svg" xmlns:svg="http://www.w3.org/2000/svg" xmlns:xlink="http://www.w3.org/1999/xlink" width="100" height="100" style="zoom: 4;"><title>Microphone</title><defs><radialGradient id="svg_1" spreadMethod="pad"><stop offset="0" stop-color="#000000"></stop><stop offset="1" stop-color="#ffffff"></stop></radialGradient></defs><g class="layer"><title>Stand</title><rect fill="#ff0000" height="17.607524" id="svg_8" stroke="url(#svg_1)" stroke-dasharray="null" stroke-linecap="null" stroke-linejoin="round" stroke-width="0" width="15" x="42.943548" y="82.190856"></rect></g><g class="layer"><title>Mic</title><circle cx="50" cy="50" fill="#000000" id="svg_13" r="22" stroke="url(#svg_1)" stroke-dasharray="null" stroke-linecap="null" stroke-linejoin="null" stroke-width="0"></circle><circle cx="50" cy="22" fill="#000000" id="svg_14" r="22" stroke="url(#svg_1)" stroke-dasharray="null" stroke-linecap="null" stroke-linejoin="null" stroke-width="0"></circle><rect fill="#000000" height="28" id="svg_16" stroke="url(#svg_1)" stroke-dasharray="null" stroke-linecap="null" stroke-linejoin="null" stroke-width="0" width="44" x="28" y="22"></rect></g><polygon points="90,50.5 81.5,50.5 80,58.375 76.125,67.875 69.25,74.5 59.125,79.125 50.625,80.75 41.875,79.375 32,74.75 25,68.5 20.125,59 19.25,50.5 10.5,50.5 11.25,60.875 15.125,70.375 22.75,78.625 32.375,85 43,89.125 43,99.75 57.75,99.625 57.625,89.5 67.5,85.875 75.125,81 82.5,74.375 87.25,66 89.5,57.875" stroke="#000000" id="polygon1" stroke-width="3px" fill="#000000" transform=""></polygon></svg>